:FULLY-SPECIFIED
:FORCE-ALL-JOINTS-BE-3DOF
:DEGREES
510
root 5.48869 16.4548 -5.53818 -138.217 88.0965 -144.023
lfemur -24.7424 -17.1881 -22.183
ltibia 47.5784 -0 0
lfoot -25.5906 -6.56992 -0.0604984
ltoes 13.9613 -0 0
rfemur -58.2672 6.15311 8.4005
rtibia 68.4956 -0 0
rfoot 7.93836 10.6239 0.00024316
rtoes -16.5956 0 0
lowerback 6.6321 -0.339928 -1.55007
upperback 0.65485 -0.489559 1.64691
thorax -3.00902 -0.207229 2.61304
lowerneck -8.92894 -10.4914 -2.44888
upperneck 9.96616 -14.0189 2.20049
head 4.77559 -6.83612 0.0917953
lclavicle -5.8372e-16 -7.71268e-15 2.00155e-32
lhumerus -47.1635 -33.9802 115.14
lradius 56.2217 -0 0
lwrist 5.74582 0 0
lhand 7.00606 0.500145 0.0400622
lfingers 7.12502 -0 0
lthumb 32.2674 27.503 0.00124633
rclavicle -5.8372e-16 -7.71268e-15 2.00155e-32
rhumerus -31.316 43.4931 -89.5755
rradius 100.246 -0 0
rwrist 15.7738 0 0
rhand 2.10178 -13.6148 0.0878331
rfingers 7.12502 -0 0
rthumb 27.5915 -41.4651 0.114616
511
root 5.49563 16.4541 -5.5188 -137.701 88.0947 -143.503
lfemur -24.6779 -16.9431 -22.1689
ltibia 47.5571 -0 0
lfoot -25.6455 -6.39919 -0.0690247
ltoes 13.8346 -0 0
rfemur -58.1379 6.00596 8.48273
rtibia 68.3657 -0 0
rfoot 7.93666 10.606 0.000275259
rtoes -16.6465 0 0
lowerback 6.61379 -0.347077 -1.58689
upperback 0.667122 -0.501222 1.65151
thorax -2.98419 -0.213098 2.63883
lowerneck -8.89821 -10.5154 -2.46088
upperneck 9.99267 -14.055 2.24025
head 4.78418 -6.85185 0.103081
lclavicle -6.00752e-16 -7.65381e-15 2.2104e-32
lhumerus -46.9414 -33.9686 114.855
lradius 56.1961 -0 0
lwrist 5.91556 0 0
lhand 6.77157 0.473988 0.0457137
lfingers 7.12502 -0 0
lthumb 32.0422 27.502 0.00141629
rclavicle -6.00752e-16 -7.65381e-15 2.2104e-32
rhumerus -30.6763 43.3439 -89.2502
rradius 100.552 -0 0
rwrist 15.224 0 0
rhand 1.85307 -13.6643 0.100279
rfingers 7.12502 -0 0
rthumb 27.3523 -41.5323 0.130865
512
root 5.5028 16.4534 -5.49875 -137.163 88.0929 -142.96
lfemur -24.6113 -16.6896 -22.154
ltibia 47.5349 -0 0
lfoot -25.7024 -6.22241 -0.0776799
ltoes 13.7037 -0 0
rfemur -58.0043 5.85335 8.56758
rtibia 68.2317 -0 0
rfoot 7.93495 10.5877 0.000307606
rtoes -16.699 0 0
lowerback 6.59474 -0.354507 -1.62501
upperback 0.679794 -0.51332 1.65622
thorax -2.95845 -0.219199 2.66548
lowerneck -8.86638 -10.5402 -2.47326
upperneck 10.02 -14.0923 2.28138
head 4.79302 -6.86809 0.114757
lclavicle -6.166e-16 -7.589e-15 2.41068e-32
lhumerus -46.7117 -33.9554 114.561
lradius 56.1695 -0 0
lwrist 6.09122 0 0
lhand 6.52878 0.446904 0.0514519
lfingers 7.12502 -0 0
lthumb 31.8091 27.5009 0.00158779
rclavicle -6.166e-16 -7.589e-15 2.41068e-32
rhumerus -30.0177 43.186 -88.9174
rradius 100.869 -0 0
rwrist 14.6558 0 0
rhand 1.59508 -13.7159 0.112929
rfingers 7.12502 -0 0
rthumb 27.1041 -41.6023 0.147381
513
root 5.51019 16.4527 -5.47805 -136.603 88.0912 -142.394
lfemur -24.5425 -16.4278 -22.1383
ltibia 47.5117 -0 0
lfoot -25.7611 -6.03976 -0.0864385
ltoes 13.5687 -0 0
rfemur -57.8665 5.69541 8.65495
rtibia 68.0938 -0 0
rfoot 7.93322 10.5688 0.000340163
rtoes -16.7533 0 0
lowerback 6.57495 -0.362212 -1.6644
upperback 0.692857 -0.525841 1.66105
thorax -2.93183 -0.225526 2.69298
lowerneck -8.83348 -10.5657 -2.486
upperneck 10.048 -14.1308 2.32382
head 4.80211 -6.88482 0.126813
lclavicle -6.31326e-16 -7.51839e-15 2.60271e-32
lhumerus -46.4746 -33.9407 114.256
lradius 56.142 -0 0
lwrist 6.27263 0 0
lhand 6.27792 0.418916 0.0572599
lfingers 7.12502 -0 0
lthumb 31.5683 27.4998 0.00176038
rclavicle -6.31326e-16 -7.51839e-15 2.60271e-32
rhumerus -29.3412 43.0195 -88.5778
rradius 101.196 -0 0
rwrist 14.0697 0 0
rhand 1.32806 -13.7693 0.125745
rfingers 7.12502 -0 0
rthumb 26.8472 -41.675 0.164116
514
root 5.5178 16.452 -5.45673 -136.021 88.0896 -141.807
lfemur -24.4716 -16.158 -22.1217
ltibia 47.4877 -0 0
lfoot -25.8215 -5.8514 -0.0952747
ltoes 13.4299 -0 0
rfemur -57.7248 5.53227 8.7447
rtibia 67.952 -0 0
rfoot 7.93149 10.5495 0.000372889
rtoes -16.8091 0 0
lowerback 6.55445 -0.370185 -1.70501
upperback 0.706298 -0.538774 1.666
thorax -2.90436 -0.232074 2.72129
lowerneck -8.79954 -10.5919 -2.4991
upperneck 10.0768 -14.1704 2.36755
head 4.81143 -6.90204 0.139237
lclavicle -6.4499e-16 -7.44215e-15 2.78681e-32
lhumerus -46.2302 -33.9243 113.943
lradius 56.1137 -0 0
lwrist 6.45961 0 0
lhand 6.01923 0.390047 0.0631206
lfingers 7.12502 -0 0
lthumb 31.3199 27.4987 0.00193357
rclavicle -6.4499e-16 -7.44215e-15 2.78681e-32
rhumerus -28.6477 42.8442 -88.232
rradius 101.532 -0 0
rwrist 13.4662 0 0
rhand 1.05227 -13.8248 0.13869
rfingers 7.12502 -0 0
rthumb 26.5818 -41.7502 0.18102
515
root 5.52562 16.4512 -5.4348 -135.418 88.0879 -141.199
lfemur -24.3988 -15.8804 -22.1044
ltibia 47.4629 -0 0
lfoot -25.8838 -5.6575 -0.104163
ltoes 13.2871 -0 0
rfemur -57.5791 5.36406 8.83673
rtibia 67.8066 -0 0
rfoot 7.92973 10.5297 0.000405745
rtoes -16.8664 0 0
lowerback 6.53325 -0.378422 -1.74681
upperback 0.720106 -0.552108 1.67106
thorax -2.87606 -0.238839 2.75041
lowerneck -8.7646 -10.6189 -2.51255
upperneck 10.1064 -14.2111 2.41252
head 4.82099 -6.91972 0.152018
lclavicle -6.57652e-16 -7.36042e-15 2.96332e-32
lhumerus -45.979 -33.9062 113.62
lradius 56.0845 -0 0
lwrist 6.65201 0 0
lhand 5.75293 0.360321 0.0690173
lfingers 7.12502 -0 0
lthumb 31.0642 27.4975 0.00210692
rclavicle -6.57652e-16 -7.36042e-15 2.96332e-32
rhumerus -27.938 42.6602 -87.8807
rradius 101.877 -0 0
rwrist 12.8457 0 0
rhand 0.767957 -13.8821 0.151727
rfingers 7.12502 -0 0
rthumb 26.3083 -41.8281 0.198044
516
root 5.53363 16.4504 -5.41228 -134.795 88.0862 -140.57
lfemur -24.324 -15.5952 -22.0862
ltibia 47.4372 -0 0
lfoot -25.9477 -5.45821 -0.113079
ltoes 13.1407 -0 0
rfemur -57.4297 5.1909 8.93091
rtibia 67.6576 -0 0
rfoot 7.92796 10.5095 0.000438689
rtoes -16.9252 0 0
lowerback 6.51139 -0.386916 -1.78977
upperback 0.734268 -0.56583 1.67622
thorax -2.84695 -0.245816 2.78029
lowerneck -8.72868 -10.6465 -2.52634
upperneck 10.1366 -14.2528 2.4587
head 4.83076 -6.93785 0.165146
lclavicle -6.69374e-16 -7.27335e-15 3.13261e-32
lhumerus -45.721 -33.8862 113.288
lradius 56.0545 -0 0
lwrist 6.84966 0 0
lhand 5.47925 0.329761 0.0749331
lfingers 7.12502 -0 0
lthumb 30.8015 27.4964 0.00227998
rclavicle -6.69374e-16 -7.27335e-15 3.13261e-32
rhumerus -27.2133 42.4673 -87.5246
rradius 102.23 -0 0
rwrist 12.209 0 0
rhand 0.475373 -13.9412 0.164818
rfingers 7.12502 -0 0
rthumb 26.0267 -41.9084 0.21514
517
root 5.54184 16.4496 -5.3892 -134.151 88.0845 -139.922
lfemur -24.2473 -15.3027 -22.0672
ltibia 47.4107 -0 0
lfoot -26.0133 -5.25372 -0.121996
ltoes 12.9907 -0 0
rfemur -57.2768 5.01293 9.02713
rtibia 67.505 -0 0
rfoot 7.92618 10.4889 0.000471682
rtoes -16.9856 0 0
lowerback 6.48888 -0.395662 -1.83384
upperback 0.748775 -0.579929 1.68147
thorax -2.81707 -0.253 2.81092
lowerneck -8.6918 -10.6748 -2.54046
upperneck 10.1674 -14.2956 2.50604
head 4.84075 -6.95643 0.178608
lclavicle -6.80216e-16 -7.1811e-15 3.29507e-32
lhumerus -45.4566 -33.8644 112.948
lradius 56.0236 -0 0
lwrist 7.05241 0 0
lhand 5.19843 0.298391 0.0808514
lfingers 7.12502 -0 0
lthumb 30.5319 27.4952 0.00245231
rclavicle -6.80216e-16 -7.1811e-15 3.29507e-32
rhumerus -26.4742 42.2656 -87.1644
rradius 102.593 -0 0
rwrist 11.5563 0 0
rhand 0.174773 -14.0021 0.177927
rfingers 7.12502 -0 0
rthumb 25.7375 -41.9911 0.23226
518
root 5.55024 16.4488 -5.36555 -133.488 88.0828 -139.254
lfemur -24.1688 -15.0032 -22.0474
ltibia 47.3834 -0 0
lfoot -26.0804 -5.04418 -0.130891
ltoes 12.8372 -0 0
rfemur -57.1204 4.83028 9.12527
rtibia 67.3491 -0 0
rfoot 7.92437 10.4678 0.000504682
rtoes -17.0473 0 0
lowerback 6.46574 -0.404652 -1.879
upperback 0.763613 -0.594394 1.68683
thorax -2.78644 -0.260387 2.84227
lowerneck -8.65401 -10.7036 -2.55491
upperneck 10.1989 -14.3394 2.55451
head 4.85095 -6.97542 0.192395
lclavicle -6.90239e-16 -7.08382e-15 3.45109e-32
lhumerus -45.1859 -33.8405 112.599
lradius 55.992 -0 0
lwrist 7.26007 0 0
lhand 4.9107 0.266234 0.0867559
lfingers 7.12502 -0 0
lthumb 30.2556 27.494 0.00262346
rclavicle -6.90239e-16 -7.08382e-15 3.45109e-32
rhumerus -25.7219 42.0549 -86.8007
rradius 102.963 -0 0
rwrist 10.8884 0 0
rhand -0.133588 -14.0647 0.191018
rfingers 7.12502 -0 0
rthumb 25.4408 -42.0762 0.249356
519
root 5.55882 16.448 -5.34138 -132.807 88.0809 -138.567
lfemur -24.0885 -14.6967 -22.0266
ltibia 47.3553 -0 0
lfoot -26.1491 -4.82977 -0.139738
ltoes 12.6804 -0 0
rfemur -56.9608 4.64308 9.22522
rtibia 67.19 -0 0
rfoot 7.92254 10.4464 0.000537647
rtoes -17.1104 0 0
lowerback 6.442 -0.413882 -1.92521
upperback 0.778772 -0.609211 1.69228
thorax -2.75507 -0.267971 2.87432
lowerneck -8.61533 -10.7331 -2.56966
upperneck 10.231 -14.3841 2.60407
head 4.86134 -6.99483 0.206495
lclavicle -6.99504e-16 -6.98166e-15 3.60107e-32
lhumerus -44.9094 -33.8147 112.243
lradius 55.9597 -0 0
lwrist 7.47249 0 0
lhand 4.61629 0.233316 0.0926303
lfingers 7.12502 -0 0
lthumb 29.973 27.4928 0.00279303
rclavicle -6.99504e-16 -6.98166e-15 3.60107e-32
rhumerus -24.9571 41.8354 -86.4341
rradius 103.342 -0 0
rwrist 10.2056 0 0
rhand -0.449457 -14.1291 0.204054
rfingers 7.12502 -0 0
rthumb 25.1368 -42.1635 0.266381
